<?xml version="1.0" encoding="utf-8"?>
<!-- Generator: Adobe Illustrator 21.1.0, SVG Export Plug-In . SVG Version: 6.00 Build 0)  -->
<svg version="1.1" id="Layer_1" xmlns="http://www.w3.org/2000/svg" xmlns:xlink="http://www.w3.org/1999/xlink" x="0px" y="0px"
	 width="10px" height="8px" viewBox="0 0 10 8" style="enable-background:new 0 0 10 8;" xml:space="preserve">
<style type="text/css">
	.st0{fill:#4A90E2;}
</style>
<path class="st0" d="M0.5,4.5h7.8L5.6,7.2c-0.2,0.2-0.2,0.5,0,0.7C5.8,8,6.1,8,6.3,7.9l3.5-3.5l0,0c0,0,0,0,0.1-0.1c0,0,0,0,0,0
	c0,0,0,0,0,0c0,0,0,0,0-0.1c0,0,0,0,0,0c0,0,0-0.1,0-0.1l0,0c0,0,0,0,0,0c0,0,0-0.1,0-0.1c0,0,0,0,0,0c0,0,0,0,0,0c0,0,0,0,0,0
	c0,0,0,0,0,0c0,0,0-0.1-0.1-0.1L6.3,0.1C6.1,0,5.8,0,5.6,0.1c-0.2,0.2-0.2,0.5,0,0.7l2.7,2.7H0.5C0.2,3.5,0,3.7,0,4
	C0,4.3,0.2,4.5,0.5,4.5z"/>
</svg>
